<?xml version="1.0" encoding="UTF-8"?><svg id="Layer_1" xmlns="http://www.w3.org/2000/svg" viewBox="0 0 1920 1920"><defs><style>.cls-1{fill:#fff;}.cls-2{fill:#c38124;}.cls-3{fill:#36b04a;}.cls-4{fill:#f0f1f1;}</style></defs><path class="cls-1" d="M1648.4,1417.42c-17.63,73.03-53.2,135.69-111.72,183.9-36.19,28.53-77.37,50.09-121.44,63.57-76.27,25.34-153.06,49.57-229.59,74.2-93.18,29.81-186.41,59.55-279.68,89.23-33.88,11.29-68.95,18.6-104.52,21.77-26.06,1.61-52.22-.33-77.76-5.77-33.71-6.56-66.23-18.23-96.42-34.6-74.65-40.44-123.83-101.22-149.3-183.32-46.72-150.72-95.84-300.8-144.24-451.01-13.4-38.38-24.59-77.5-33.5-117.16-16.72-84.24-2.33-161.61,45.81-232.76,.78-1.1,1.36-2.33,2.4-3.95-38.33-39.21-65.47-87.96-78.6-141.2-17.56-69.53,1.17-131.22,46.46-185.59,24.58-28.3,53.62-52.38,85.99-71.28,2.53-1.62,5.12-3.11,8.23-5.05-7.84-16.2-15.42-32.4-23.2-47.95-11.14-20.86-16.59-44.28-15.81-67.91,2.01-34.86,18.66-61.95,45.36-83.59,17.19-13.59,36.77-23.84,57.74-30.2,104.72-33.83,209.43-67.61,314.15-101.35,19.63-7.05,39.81-12.47,60.33-16.2,63.71-9.51,123.07,34.43,132.58,98.15,.17,1.13,.32,2.26,.46,3.4,2.79,20.28,6.48,40.44,9.53,59.88,16.98,0,33.24-.71,49.44,0,35.73,1.01,71.11,7.34,104.98,18.79,57.87,19.45,102.19,66.52,118.13,125.45,11.31,36.82,17.01,75.14,16.91,113.66,0,11.53-1.81,23.07-2.79,34.34,15.55,7.52,31.04,14.71,46.2,22.55,65.56,33.24,115.15,91.28,137.76,161.22,17.37,51.06,33.57,102.45,49.96,153.84,44.71,140.1,89.27,280.22,133.68,420.36,13.26,43.77,14.11,90.36,2.46,134.59Z"/><path class="cls-1" d="M1601.55,1404.46c-14.52,57.15-40.37,108.35-83.85,149.04-50.67,47.37-117.42,65.51-181.44,86.38-145.58,47.17-291.28,93.72-437.08,139.64-70.11,22.03-135.69,30.59-206.52,6.16-52.36-18.01-101.54-52.16-132.65-98.43-36.61-54.43-50.09-121.82-69.66-183.51-23.28-73.22-46.76-146.34-70.44-219.35-25.34-78.47-57.35-157.79-72.84-238.98-14.06-73.48,4.99-136.66,43.55-199.2,10.82-19.14,7.73-43.12-7.58-58.9-43.55-46.46-79.83-114.18-69.34-179.88,10.76-67.39,66.94-113.21,121.56-146.71,23.65-14.52,29.03-42.31,17.43-66.48-23.98-49.7-55.27-103.68,2.01-142.56,30.13-20.54,70.89-27.99,105.24-38.88l114.76-37.13,108.73-35.06c28.45-9.07,61.82-25.47,92.34-21.58,61.88,7.91,61.5,79.51,69.21,126.62,3.37,20.61,27.22,35.83,46.85,35.7,66.42-.52,146.12,0,194.85,52.62,45.36,48.92,49.51,128.69,43.22,191.16-.31,17.37,8.95,33.5,24.11,41.99,59.62,28.77,112.36,57.87,145.28,117.87,17.37,31.75,26.7,67.52,37.84,101.8,13.48,41.52,26.78,83.14,39.92,124.87,25.53,80.05,51.04,160.12,76.53,240.21,25.92,81.32,67.26,166.28,48.15,252.72-13.48,60.98,80.22,87.03,93.77,25.92,11.36-46.6,12.16-95.16,2.33-142.11-10.63-46.72-28.38-92.66-42.9-138.35-29.2-92.15-58.51-184.23-87.93-276.24-25.92-82.3-45.36-175.93-90.72-250.06-41.67-67.78-103.03-106.79-173.08-140.62l23.72,41.67c8.94-88.91-8.42-192.52-71.67-259.85-67.59-71.86-170.55-81.71-263.61-81l46.98,35.7c-7.19-44.19-10.3-89.16-36.55-127.01-21.31-31.01-52.52-53.85-88.52-64.8-43.35-12.96-85.99-3.82-127.92,9.59l-149.04,48.02-150.98,48.79c-44.32,14.71-87.87,30.65-119.75,66.55-28.29,30.56-43.72,70.85-43.09,112.49,1.3,47.3,25.92,88.65,45.75,130.12l17.43-66.48c-80.74,49.44-153.71,119.43-168.16,217.53-14.26,96.62,31.43,192.33,96.29,261.53l-7.71-59.03c-38.88,63.76-64.15,131.35-61.37,207.36,3.05,82.36,34.34,161.16,59.42,238.72,26.87,83.2,53.68,166.45,80.42,249.74,24.04,75.43,40.95,158.89,81.32,227.77,74.39,126.81,227.77,194.79,371.76,173.6,85.41-12.57,169.13-47.11,251.1-73.35,80.78-25.92,161.59-51.84,242.42-77.76,83.92-27.02,170.36-50.22,239.44-107.63,63.44-52.68,104.07-126.04,124.29-205.35,15.55-60.39-78.15-86.25-93.64-25.6Z"/><path d="M348.45,821.64c-38.31-39.16-65.47-87.84-78.67-141-17.43-69.6,1.23-131.28,46.53-185.65,24.56-28.32,53.61-52.4,85.99-71.28l8.23-5.05c-7.84-16.2-15.42-32.4-23.2-47.95-11.16-20.85-16.61-44.28-15.81-67.91,2.07-34.8,18.66-61.95,45.36-83.59,17.21-13.59,36.82-23.83,57.8-30.2,104.63-33.83,209.33-67.61,314.09-101.35,19.62-7.14,39.8-12.65,60.33-16.46,63.71-9.51,123.07,34.43,132.58,98.15,.17,1.13,.32,2.26,.46,3.4,2.79,20.28,6.48,40.37,9.59,59.94,16.91,0,33.24-.71,49.44,0,35.73,.97,71.11,7.28,104.98,18.73,57.83,19.48,102.13,66.54,118.07,125.45,11.3,36.82,17,75.14,16.91,113.66,0,11.53-1.81,23.07-2.79,34.34,15.55,7.58,31.1,14.71,46.2,22.62,65.57,33.2,115.17,91.22,137.76,161.16,17.37,51.06,33.57,102.45,49.96,153.77,44.71,140.1,89.27,280.26,133.68,420.49,13.23,43.73,14.11,90.27,2.53,134.46-17.69,73.03-53.33,135.69-111.78,183.9-35.9,29.61-77.76,48.99-121.44,63.57-76.33,25.4-152.99,49.64-229.59,74.2-93.18,29.89-186.41,59.66-279.68,89.29-33.89,11.24-68.96,18.52-104.52,21.71-26.06,1.61-52.22-.33-77.76-5.77-33.69-6.56-66.19-18.23-96.36-34.6-74.71-40.69-123.9-101.15-149.36-183.25-46.79-150.72-95.84-300.8-144.24-451.01-13.4-38.38-24.59-77.5-33.5-117.16-16.65-84.24-2.33-161.61,45.81-232.76,.78-.97,1.43-2.2,2.4-3.82Z"/><path class="cls-2" d="M865.1,174.16c8.62,.71,11.21,2.59,12.96,11.47,5.31,30.72,10.43,61.5,15.55,92.28,5.83,34.8,11.47,69.66,17.5,104.46,1.04,5.9,1.43,10.95-3.69,15.03-.45,0-1.1,.71-1.17,1.17-.91,13.87-12.96,15.75-22.23,19.44-83.79,29.87-167.9,58.71-253.82,81.78-13.87,3.69-27.8,7-41.86,9.78-8.71,2.24-17.72-2.42-20.93-10.82-13.65-27.39-27.22-54.71-40.69-81.97-16.72-33.76-33.44-67.39-50.09-101.15-4.15-8.36-3.11-12.12,4.92-17.17,3.09-1.8,6.37-3.26,9.78-4.34l361-116.64c4.15-1.56,8.55-2.27,12.77-3.3Z"/><path class="cls-3" d="M1319.73,856.64c5.57,17.04,10.76,32.4,15.68,47.95,26.83,83.66,53.78,167.31,80.16,251.1,11.99,37.97,23.65,76.01,33.5,114.57,10.15,35.58,10.85,73.19,2.01,109.12-13.61,50.28-45.75,84.82-91.69,107.76-48.15,24.04-99.21,40.44-150.34,56.7-94.31,29.94-188.63,59.77-282.98,89.49-39.92,12.4-81.34,19.33-123.12,20.61-46.79,1.56-86.05-16.91-117.94-51.32-22.95-26.04-40.34-56.49-51.13-89.49-18.27-50.67-35.45-101.74-52.55-152.8-22.74-67.59-44.39-135.69-67.59-202.95-6.08-17.63-4.55-37,4.21-53.46,11.79-24.95,31.1-43.48,52.68-59.94,8.36-6.48,17.17-12.12,25.92-18.21,18.53-13.28,28.84-45.75,21.51-67.13-3.77-9.65-11.37-17.29-21-21.12-25.27-11.36-40.9-37.14-39.27-64.8,1.9-37.78,34.07-66.87,71.85-64.96,37.78,1.9,66.87,34.07,64.96,71.85-.54,10.8-3.64,21.32-9.03,30.7-8.43,12.65-7.61,29.32,2.01,41.08,9.03,14.31,25.89,21.64,42.51,18.47,18.4-3.56,36.22-9.78,54.43-14.39,37.48-9.1,76.3-11.3,114.57-6.48,36.22,4.08,72.19,10.43,108.41,14.71,84.82,10.04,164.14-5.05,235.81-53.4,22.74-15.29,44.97-31.3,67.39-47.04l9.01-6.61Z"/></svg>
